<svg preserveAspectRatio="none" xmlns="http://www.w3.org/2000/svg" viewBox="0 0 1000 140"><path d="M0 82c8 7 24 10 40 9s29-4 43-6 30-6 45-5c19 2 35 9 53 12 27 4 56-1 80-8s43-18 64-26 47-16 75-17c29 0 57 7 85 4a140 140 0 0043-11c11 6 24 10 38 11 26 3 51-4 77-4 25 1 47 8 67 17s37 18 58 26 47 12 71 8c17-3 31-10 48-12 14-1 27 2 40 5s25 6 39 6 29-2 35-9V0H0z"/><path d="M0 92c8 6 24 9 40 8s29-3 43-6 30-5 45-4c19 1 35 8 53 11 27 4 56 0 80-8s43-17 64-26 47-16 75-17c29 0 57 7 85 4a140 140 0 0043-10c11 5 24 9 38 10 26 3 51-4 77-4 25 1 47 8 67 17s37 19 58 26 47 12 71 8c17-3 31-10 48-11 14-1 27 1 40 4s25 6 39 6 29-2 35-8V9H0z" opacity=".5"/></svg> 